REM MD5 a1887ae6eaa7a43b0b008c2be2925e37
FILE "Mahjong Taikai II Special (Japan) (Rev 1).bin" BINARY
  TRACK 01 MODE2/2352
    INDEX 01 00:00:00
  TRACK 02 AUDIO
    INDEX 00 11:09:74
    INDEX 01 11:11:74
  TRACK 03 AUDIO
    INDEX 00 43:10:07
    INDEX 01 43:12:07
REM LEADOUT 45:48:63
